<svg width="527" height="1143" viewBox="0 0 527 1143" fill="none" xmlns="http://www.w3.org/2000/svg">
<g opacity="0.07" clip-path="url(#clip0_78_666)">
<path d="M89.6016 572.145L-83.2634 391.017C-85.0695 389.125 -88.0654 389.057 -89.9555 390.861L-318.727 609.196C-320.617 611 -320.689 613.995 -318.883 615.888L-146.016 797.018C-144.21 798.911 -141.214 798.978 -139.324 797.174L89.4476 578.839C91.3378 577.031 91.4077 574.037 89.6016 572.145ZM-142.435 787.054L-308.765 612.774L-86.8415 400.975L79.4899 575.257L-142.433 787.056L-142.435 787.054Z" fill="#FFDD00"/>
<path d="M131.279 576.417L-41.5971 395.277C-43.401 393.387 -46.399 393.317 -48.2891 395.121L-55.409 401.916C-57.2992 403.72 -57.3691 406.718 -55.5652 408.608C-53.7613 410.498 -50.7633 410.568 -48.8732 408.764L-45.1774 405.237L121.163 579.528L-100.758 791.325L-105.318 786.547C-107.122 784.657 -110.12 784.587 -112.01 786.391C-113.9 788.195 -113.97 791.193 -112.166 793.083L-104.338 801.285C-102.534 803.175 -99.5364 803.245 -97.6463 801.441L131.123 583.109C133.013 581.305 133.085 578.309 131.279 576.417Z" fill="#FFDD00"/>
<path d="M172.923 580.658L0.0692042 399.542C-1.7347 397.652 -4.73275 397.582 -6.62287 399.386L-13.7428 406.181C-15.6329 407.985 -15.7029 410.983 -13.899 412.873C-12.0951 414.763 -9.09707 414.833 -7.20694 413.029L-3.51115 409.502L162.807 583.77L-59.1138 795.567L-63.654 790.81C-65.4579 788.92 -68.456 788.85 -70.3461 790.654C-72.2362 792.458 -72.3062 795.456 -70.5023 797.346L-62.6941 805.527C-60.8902 807.417 -57.8922 807.487 -56.0021 805.683L172.767 587.35C174.657 585.547 174.729 582.551 172.923 580.658Z" fill="#FFDD00"/>
<path d="M12.5726 574.141L-31.1198 528.36C-32.9237 526.47 -35.9217 526.4 -37.8118 528.204C-39.702 530.008 -39.772 533.006 -37.968 534.896L5.72427 580.677C7.52816 582.567 10.5262 582.637 12.4163 580.833C14.3065 579.029 14.3765 576.031 12.5726 574.141Z" fill="#FFDD00"/>
</g>
<defs>
<clipPath id="clip0_78_666">
<rect width="807.817" height="807.817" fill="white" transform="translate(-31.6133) rotate(46.3372)"/>
</clipPath>
</defs>
</svg>
