<svg width="200" height="646" viewBox="0 0 200 646" fill="none" xmlns="http://www.w3.org/2000/svg">
<path d="M104.009 75.793H-243.698C-247.331 75.793 -250.271 78.7378 -250.271 82.3662V521.533C-250.271 525.161 -247.331 528.106 -243.698 528.106H104.013C107.646 528.106 110.586 525.161 110.586 521.533V82.3662C110.582 78.7334 107.642 75.793 104.009 75.793ZM97.4355 514.955H-237.125V88.9351H97.44V514.955H97.4355Z" fill="#FFDD00"/>
<path d="M148.26 38.0186H-199.469C-203.097 38.0186 -206.042 40.9634 -206.042 44.5918V58.2597C-206.042 61.8881 -203.097 64.8329 -199.469 64.8329C-195.84 64.8329 -192.895 61.8881 -192.895 58.2597V51.165H141.687V477.18H132.515C128.886 477.18 125.942 480.125 125.942 483.754C125.942 487.382 128.886 490.327 132.515 490.327H148.26C151.888 490.327 154.833 487.382 154.833 483.754V44.5918C154.833 40.9634 151.893 38.0186 148.26 38.0186Z" fill="#FFDD00"/>
<path d="M192.449 0.248047H-155.235C-158.864 0.248047 -161.808 3.19285 -161.808 6.82128V20.4892C-161.808 24.1177 -158.864 27.0625 -155.235 27.0625C-151.607 27.0625 -148.662 24.1177 -148.662 20.4892V13.3945H185.876V439.41H176.744C173.115 439.41 170.171 442.355 170.171 445.983C170.171 449.612 173.115 452.557 176.744 452.557H192.449C196.078 452.557 199.023 449.612 199.023 445.983V6.82128C199.023 3.19285 196.082 0.248047 192.449 0.248047Z" fill="#FFDD00"/>
<path d="M32.1592 155.091H-55.7251C-59.3535 155.091 -62.2983 158.036 -62.2983 161.664C-62.2983 165.293 -59.3535 168.237 -55.7251 168.237H32.1592C35.7876 168.237 38.7324 165.293 38.7324 161.664C38.7324 158.036 35.7876 155.091 32.1592 155.091Z" fill="#FFDD00"/>
<path d="M32.1586 195.403H-55.7255C-59.3539 195.403 -62.2987 198.348 -62.2987 201.977C-62.2987 205.605 -59.3539 208.55 -55.7255 208.55H32.1586C35.7871 208.55 38.7319 205.605 38.7319 201.977C38.7319 198.348 35.7871 195.403 32.1586 195.403Z" fill="#FFDD00"/>
<path d="M32.159 235.715H-55.7251C-59.3535 235.715 -62.2983 238.66 -62.2983 242.288C-62.2983 245.917 -59.3535 248.861 -55.7251 248.861H32.159C35.7874 248.861 38.7322 245.917 38.7322 242.288C38.7322 238.655 35.7874 235.715 32.159 235.715Z" fill="#FFDD00"/>
<path d="M32.1588 276.021H-162.751C-166.379 276.021 -169.324 278.965 -169.324 282.594C-169.324 286.222 -166.379 289.167 -162.751 289.167H32.1588C35.7873 289.167 38.7321 286.222 38.7321 282.594C38.7321 278.965 35.7873 276.021 32.1588 276.021Z" fill="#FFDD00"/>
<path d="M32.1588 316.333H-162.751C-166.379 316.333 -169.324 319.278 -169.324 322.906C-169.324 326.535 -166.379 329.48 -162.751 329.48H32.1588C35.7872 329.48 38.732 326.535 38.732 322.906C38.732 319.278 35.7872 316.333 32.1588 316.333Z" fill="#FFDD00"/>
<path d="M32.1589 356.641H-162.751C-166.379 356.641 -169.324 359.585 -169.324 363.214C-169.324 366.842 -166.379 369.787 -162.751 369.787H32.1589C35.7873 369.787 38.7321 366.842 38.7321 363.214C38.7321 359.585 35.7873 356.641 32.1589 356.641Z" fill="#FFDD00"/>
<path d="M32.159 396.952H-162.75C-166.379 396.952 -169.324 399.897 -169.324 403.525C-169.324 407.154 -166.379 410.099 -162.75 410.099H32.159C35.7874 410.099 38.7322 407.154 38.7322 403.525C38.7322 399.893 35.7874 396.952 32.159 396.952Z" fill="#FFDD00"/>
<path d="M32.1591 437.264H-162.75C-166.379 437.264 -169.324 440.208 -169.324 443.837C-169.324 447.465 -166.379 450.41 -162.75 450.41H32.1591C35.7875 450.41 38.7323 447.465 38.7323 443.837C38.7323 440.204 35.7875 437.264 32.1591 437.264Z" fill="#FFDD00"/>
</svg>
