<svg width="74" height="92" viewBox="0 0 74 92" fill="none" xmlns="http://www.w3.org/2000/svg">
<path d="M1.89739 88.9992V89.4992H2.39739H63.4078H63.4086H63.9086V88.9992V9.50122V9.00122H63.4086H2.39739H1.89739V9.50122V88.9992ZM1.1987 7.54883H64.6065C64.982 7.54883 65.3055 7.86279 65.306 8.27603V90.2267C65.306 90.6387 64.9827 90.9533 64.6073 90.9533H1.1987C0.823361 90.9533 0.5 90.6387 0.5 90.2267V8.27543C0.5 7.86336 0.82336 7.54883 1.1987 7.54883Z" fill="#FFDD00" stroke="#FFDD00"/>
<path d="M10.4628 1.95296H9.96282V2.45296V3.77687C9.96282 4.18872 9.63888 4.50348 9.26413 4.50348C8.88937 4.50348 8.56543 4.18872 8.56543 3.77687V1.22636C8.56543 0.814506 8.88937 0.499756 9.26413 0.499756H72.6759C73.0513 0.499756 73.3746 0.814286 73.3746 1.22636V83.1765C73.3746 83.5884 73.0507 83.9031 72.6759 83.9031H69.8047C69.4299 83.9031 69.106 83.5884 69.106 83.1765C69.106 82.7647 69.4299 82.4499 69.8047 82.4499H71.4772H71.9772V81.9499V2.45296V1.95296H71.4772H10.4628Z" fill="#FFDD00" stroke="#FFDD00"/>
<path d="M35.4773 22.3459H51.5039C51.8786 22.3459 52.2026 22.6607 52.2026 23.0727C52.2026 23.4847 51.8786 23.7995 51.5039 23.7995H35.4773C35.1026 23.7995 34.7786 23.4847 34.7786 23.0727C34.7786 22.6607 35.1026 22.3459 35.4773 22.3459Z" fill="#FFDD00" stroke="#FFDD00"/>
<path d="M35.4773 29.8682H51.5039C51.8786 29.8682 52.2026 30.1829 52.2026 30.5948C52.2026 31.0066 51.8786 31.3213 51.5039 31.3213H35.4773C35.1025 31.3213 34.7786 31.0066 34.7786 30.5948C34.7786 30.1829 35.1025 29.8682 35.4773 29.8682Z" fill="#FFDD00" stroke="#FFDD00"/>
<path d="M35.4773 37.3911H51.5039C51.8789 37.3911 52.2026 37.7053 52.2026 38.1177C52.2026 38.5295 51.8786 38.8443 51.5039 38.8443H35.4773C35.1025 38.8443 34.7786 38.5295 34.7786 38.1177C34.7786 37.7059 35.1025 37.3911 35.4773 37.3911Z" fill="#FFDD00" stroke="#FFDD00"/>
<path d="M15.9602 44.9128H51.5039C51.8787 44.9128 52.2026 45.2276 52.2026 45.6394C52.2026 46.0513 51.8787 46.366 51.5039 46.366H15.9602C15.5854 46.366 15.2615 46.0513 15.2615 45.6394C15.2615 45.2276 15.5854 44.9128 15.9602 44.9128Z" fill="#FFDD00" stroke="#FFDD00"/>
<path d="M15.9602 52.4348H51.5039C51.8786 52.4348 52.2026 52.7496 52.2026 53.1616C52.2026 53.5736 51.8786 53.8884 51.5039 53.8884H15.9602C15.5855 53.8884 15.2615 53.5736 15.2615 53.1616C15.2615 52.7496 15.5855 52.4348 15.9602 52.4348Z" fill="#FFDD00" stroke="#FFDD00"/>
<path d="M15.9602 59.9565H51.5039C51.8786 59.9565 52.2026 60.2713 52.2026 60.6833C52.2026 61.0953 51.8786 61.4101 51.5039 61.4101H15.9602C15.5855 61.4101 15.2615 61.0953 15.2615 60.6833C15.2615 60.2713 15.5855 59.9565 15.9602 59.9565Z" fill="#FFDD00" stroke="#FFDD00"/>
<path d="M15.9602 67.4788H51.5039C51.8789 67.4788 52.2026 67.7929 52.2026 68.2053C52.2026 68.6172 51.8787 68.9319 51.5039 68.9319H15.9602C15.5854 68.9319 15.2615 68.6172 15.2615 68.2053C15.2615 67.7935 15.5854 67.4788 15.9602 67.4788Z" fill="#FFDD00" stroke="#FFDD00"/>
<path d="M15.9602 75.001H51.5039C51.879 75.001 52.2026 75.3151 52.2026 75.7274C52.2026 76.1391 51.8788 76.4538 51.5039 76.4538H15.9602C15.5853 76.4538 15.2615 76.1391 15.2615 75.7274C15.2615 75.3157 15.5853 75.001 15.9602 75.001Z" fill="#FFDD00" stroke="#FFDD00"/>
<path d="M17.4794 23.8H16.9794V24.3V36.8906V37.3906H17.4794H27.6923H28.1923V36.8906V24.3V23.8H27.6923H17.4794ZM28.891 38.8446H16.2807C15.9054 38.8446 15.582 38.5301 15.582 38.118V23.0743C15.582 22.6622 15.9054 22.3477 16.2807 22.3477H28.891C29.2664 22.3477 29.5897 22.6622 29.5897 23.0743V38.118C29.5897 38.5301 29.2664 38.8446 28.891 38.8446Z" fill="#FFDD00" stroke="#FFDD00"/>
</svg>
