<svg width="80" height="84" viewBox="0 0 80 84" fill="none" xmlns="http://www.w3.org/2000/svg">
<path d="M78.1875 46.3846H59.66V37.6576C59.66 37.3543 59.415 37.1083 59.1117 37.1069L57.2494 37.0984C56.9453 37.0969 56.6975 37.3426 56.696 37.6466C56.6946 37.9507 56.9402 38.1985 57.2442 38.2L58.5584 38.2059V46.3824H55.0345V29.1565C59.4866 31.7595 64.9034 31.8568 69.3622 29.6313C69.6254 29.4998 69.722 29.1705 69.581 28.912L69.5564 28.8672C69.4198 28.6164 69.1103 28.5264 68.8547 28.6535C63.2547 31.4408 56.1695 30.2107 51.9031 25.0892C44.3372 16.0053 51.0516 2.52734 62.6272 2.52734C67.5365 2.52734 72.0661 5.09325 74.5714 9.25789C74.7191 9.50281 75.029 9.5935 75.2794 9.45507L75.3242 9.43047C75.5816 9.28837 75.6767 8.95973 75.5258 8.70784C72.824 4.20245 67.9309 1.42578 62.6272 1.42578C55.7817 1.42578 49.9967 5.99947 48.2008 12.2277H6.59585C6.29182 12.2277 6.04507 12.4745 6.04507 12.7785V72.9355L3.35763 77.9565C3.05763 78.5491 2.95409 79.1814 3.00512 79.7124C2.59828 79.0966 2.36328 78.36 2.36328 77.5717V32.0184H4.20252C4.50656 32.0184 4.7533 31.7716 4.7533 31.4676C4.7533 31.1636 4.50656 30.9168 4.20252 30.9168H1.8125C1.50847 30.9168 1.26172 31.1636 1.26172 31.4676V77.5713C1.26172 80.4629 3.69066 82.5742 6.16624 82.5742H54.5024C57.7399 82.5742 60.6943 80.8114 62.2123 77.9734L78.6733 47.1953C78.8694 46.8278 78.6021 46.3846 78.1875 46.3846ZM7.14663 13.3293H47.9224C46.7324 19.1477 49.136 25.069 53.9333 28.4592V46.3835H20.5761C20.3727 46.3835 20.1862 46.4955 20.0904 46.6747L20.09 46.675L7.14663 70.876V13.3293ZM61.2411 77.4538C59.9152 79.9327 57.3331 81.4727 54.5024 81.4727H6.30357C6.30247 81.4727 6.30137 81.4723 6.2999 81.4723C5.46014 81.4723 4.87484 81.1514 4.4893 80.6193C4.4882 80.6178 4.48709 80.616 4.48599 80.6145C4.02407 79.9731 3.97083 79.1491 4.33655 78.4658C6.76586 73.9233 18.0907 52.7498 20.9055 47.4861H77.2681L61.2411 77.4538Z" fill="#FFDD00" stroke="#FFDD00" stroke-width="1.5"/>
<path d="M66.4807 75.2006L65.9545 76.1685L66.9224 76.6946L67.4485 75.7267L66.4807 75.2006Z" fill="#FFDD00"/>
<path d="M67.532 73.2579L67.0057 74.2256L67.9734 74.7519L68.4997 73.7842L67.532 73.2579Z" fill="#FFDD00"/>
<path d="M65.4282 77.1362L64.902 78.104L65.8699 78.6301L66.396 77.6623L65.4282 77.1362Z" fill="#FFDD00"/>
<path d="M68.5852 71.329L68.0591 72.2969L69.027 72.823L69.5531 71.8551L68.5852 71.329Z" fill="#FFDD00"/>
<path d="M71.7423 65.5219L71.2162 66.4897L72.184 67.0159L72.7102 66.048L71.7423 65.5219Z" fill="#FFDD00"/>
<path d="M69.6376 69.3935L69.1115 70.3613L70.0793 70.8874L70.6054 69.9196L69.6376 69.3935Z" fill="#FFDD00"/>
<path d="M72.7933 63.5796L72.267 64.5474L73.2347 65.0737L73.7611 64.106L72.7933 63.5796Z" fill="#FFDD00"/>
<path d="M70.6901 67.4579L70.164 68.4258L71.1318 68.9519L71.6579 67.9841L70.6901 67.4579Z" fill="#FFDD00"/>
<path d="M39.6379 21.1772H20.871C20.567 21.1772 20.3202 21.424 20.3202 21.728C20.3202 22.0321 20.567 22.2788 20.871 22.2788H39.6379C39.942 22.2788 40.1887 22.0321 40.1887 21.728C40.1887 21.424 39.942 21.1772 39.6379 21.1772Z" fill="white"/>
<path d="M39.6379 21.1772H20.871C20.567 21.1772 20.3202 21.424 20.3202 21.728C20.3202 22.0321 20.567 22.2788 20.871 22.2788H39.6379C39.942 22.2788 40.1887 22.0321 40.1887 21.728C40.1887 21.424 39.942 21.1772 39.6379 21.1772Z" fill="#FFDD00"/>
<path d="M44.5271 27.2046H15.9819C15.6779 27.2046 15.4311 27.4513 15.4311 27.7554C15.4311 28.0594 15.6779 28.3062 15.9819 28.3062H44.5271C44.8311 28.3062 45.0778 28.0594 45.0778 27.7554C45.0778 27.4513 44.8311 27.2046 44.5271 27.2046Z" fill="white"/>
<path d="M44.5271 27.2046H15.9819C15.6779 27.2046 15.4311 27.4513 15.4311 27.7554C15.4311 28.0594 15.6779 28.3062 15.9819 28.3062H44.5271C44.8311 28.3062 45.0778 28.0594 45.0778 27.7554C45.0778 27.4513 44.8311 27.2046 44.5271 27.2046Z" fill="#FFDD00"/>
<path d="M44.5271 33.2319H15.9819C15.6779 33.2319 15.4311 33.4787 15.4311 33.7827C15.4311 34.0867 15.6779 34.3335 15.9819 34.3335H44.5271C44.8311 34.3335 45.0778 34.0867 45.0778 33.7827C45.0778 33.4783 44.8311 33.2319 44.5271 33.2319Z" fill="white"/>
<path d="M44.5271 33.2319H15.9819C15.6779 33.2319 15.4311 33.4787 15.4311 33.7827C15.4311 34.0867 15.6779 34.3335 15.9819 34.3335H44.5271C44.8311 34.3335 45.0778 34.0867 45.0778 33.7827C45.0778 33.4783 44.8311 33.2319 44.5271 33.2319Z" fill="#FFDD00"/>
<path d="M44.5271 39.2593H15.9819C15.6779 39.2593 15.4311 39.506 15.4311 39.8101C15.4311 40.1141 15.6779 40.3608 15.9819 40.3608H44.5271C44.8311 40.3608 45.0778 40.1141 45.0778 39.8101C45.0778 39.5057 44.8311 39.2593 44.5271 39.2593Z" fill="white"/>
<path d="M44.5271 39.2593H15.9819C15.6779 39.2593 15.4311 39.506 15.4311 39.8101C15.4311 40.1141 15.6779 40.3608 15.9819 40.3608H44.5271C44.8311 40.3608 45.0778 40.1141 45.0778 39.8101C45.0778 39.5057 44.8311 39.2593 44.5271 39.2593Z" fill="#FFDD00"/>
<path d="M9.49884 8.40674H8.39728V9.5083H9.49884V8.40674Z" fill="#FFDD00"/>
<path d="M7.29571 9.50822V8.40666C6.50736 8.40666 6.366 8.40152 6.1567 8.41584L6.23234 9.51483C6.38766 9.50418 7.12791 9.50822 7.29571 9.50822Z" fill="#FFDD00"/>
<path d="M3.5739 14.9517H2.47234V16.0532H3.5739V14.9517Z" fill="#FFDD00"/>
<path d="M5.33567 9.72317L4.91707 8.70459C4.52124 8.86689 4.15662 9.0916 3.8324 9.37177L4.55282 10.2053C4.78709 10.0026 5.05036 9.8403 5.33567 9.72317Z" fill="#FFDD00"/>
<path d="M3.5739 12.7485H2.47234V13.8501H3.5739V12.7485Z" fill="#FFDD00"/>
<path d="M3.5739 17.1548H2.47234V18.2563H3.5739V17.1548Z" fill="#FFDD00"/>
<path d="M3.96347 10.9103L3.01539 10.3496C2.79654 10.7201 2.64122 11.1207 2.55383 11.5404L3.63263 11.7644C3.69505 11.4633 3.80668 11.1758 3.96347 10.9103Z" fill="#FFDD00"/>
<path d="M71.3811 9.74287L71.3804 9.74337C71.3771 9.74569 71.3751 9.7462 71.3741 9.74642C71.3727 9.74672 71.3702 9.74697 71.3666 9.74634C71.3593 9.74507 71.3487 9.74042 71.3392 9.72805L71.339 9.7278C69.2722 7.03832 66.0547 5.44971 62.6276 5.44971C56.5885 5.44971 51.6686 10.3206 51.6686 16.318C51.6686 24.8331 61.0982 29.9585 68.2808 25.6281L68.2809 25.6281C68.2941 25.62 68.3056 25.6196 68.3129 25.6211C68.3165 25.6218 68.3187 25.623 68.32 25.6238C68.3209 25.6244 68.3225 25.6256 68.3247 25.6288C68.3247 25.6289 68.3248 25.629 68.3249 25.6291L68.3522 25.6703L68.3531 25.6717C68.3576 25.6784 68.3593 25.6867 68.3576 25.695C68.3568 25.6988 68.3557 25.7008 68.3554 25.7012C68.3553 25.7013 68.3553 25.7013 68.3554 25.7012C68.3556 25.701 68.3555 25.7011 68.3548 25.7015L68.3547 25.7016C61.1057 30.0951 51.5667 24.9162 51.5667 16.318C51.5667 10.2734 56.5253 5.34814 62.6272 5.34814C66.0901 5.34814 69.3394 6.95605 71.4242 9.67263L71.4242 9.67267C71.4311 9.68161 71.4328 9.69045 71.4315 9.69868C71.4309 9.70286 71.4296 9.70604 71.4283 9.70822C71.4272 9.71002 71.4254 9.71228 71.4215 9.71501L71.3811 9.74287Z" fill="#FFDD00"/>
<path d="M71.3811 9.74287L71.3804 9.74337C71.3771 9.74569 71.3751 9.7462 71.3741 9.74642C71.3727 9.74672 71.3702 9.74697 71.3666 9.74634C71.3593 9.74507 71.3487 9.74042 71.3392 9.72805L71.339 9.7278C69.2722 7.03832 66.0547 5.44971 62.6276 5.44971C56.5885 5.44971 51.6686 10.3206 51.6686 16.318C51.6686 24.8331 61.0982 29.9585 68.2808 25.6281L68.2809 25.6281C68.2941 25.62 68.3056 25.6196 68.3129 25.6211C68.3165 25.6218 68.3187 25.623 68.32 25.6238C68.3209 25.6244 68.3225 25.6256 68.3247 25.6288C68.3247 25.6289 68.3248 25.629 68.3249 25.6291L68.3522 25.6703L68.3531 25.6717C68.3576 25.6784 68.3593 25.6867 68.3576 25.695C68.3568 25.6988 68.3557 25.7008 68.3554 25.7012C68.3553 25.7013 68.3553 25.7013 68.3554 25.7012C68.3556 25.701 68.3555 25.7011 68.3548 25.7015L68.3547 25.7016C61.1057 30.0951 51.5667 24.9162 51.5667 16.318C51.5667 10.2734 56.5253 5.34814 62.6272 5.34814C66.0901 5.34814 69.3394 6.95605 71.4242 9.67263L71.4242 9.67267C71.4311 9.68161 71.4328 9.69045 71.4315 9.69868C71.4309 9.70286 71.4296 9.70604 71.4283 9.70822C71.4272 9.71002 71.4254 9.71228 71.4215 9.71501L71.3811 9.74287Z" stroke="white"/>
<path d="M71.3811 9.74287L71.3804 9.74337C71.3771 9.74569 71.3751 9.7462 71.3741 9.74642C71.3727 9.74672 71.3702 9.74697 71.3666 9.74634C71.3593 9.74507 71.3487 9.74042 71.3392 9.72805L71.339 9.7278C69.2722 7.03832 66.0547 5.44971 62.6276 5.44971C56.5885 5.44971 51.6686 10.3206 51.6686 16.318C51.6686 24.8331 61.0982 29.9585 68.2808 25.6281L68.2809 25.6281C68.2941 25.62 68.3056 25.6196 68.3129 25.6211C68.3165 25.6218 68.3187 25.623 68.32 25.6238C68.3209 25.6244 68.3225 25.6256 68.3247 25.6288C68.3247 25.6289 68.3248 25.629 68.3249 25.6291L68.3522 25.6703L68.3531 25.6717C68.3576 25.6784 68.3593 25.6867 68.3576 25.695C68.3568 25.6988 68.3557 25.7008 68.3554 25.7012C68.3553 25.7013 68.3553 25.7013 68.3554 25.7012C68.3556 25.701 68.3555 25.7011 68.3548 25.7015L68.3547 25.7016C61.1057 30.0951 51.5667 24.9162 51.5667 16.318C51.5667 10.2734 56.5253 5.34814 62.6272 5.34814C66.0901 5.34814 69.3394 6.95605 71.4242 9.67263L71.4242 9.67267C71.4311 9.68161 71.4328 9.69045 71.4315 9.69868C71.4309 9.70286 71.4296 9.70604 71.4283 9.70822C71.4272 9.71002 71.4254 9.71228 71.4215 9.71501L71.3811 9.74287Z" stroke="#FFDD00"/>
<path d="M59.1066 19.9862L59.1064 19.9864C59.087 20.0057 59.055 20.0064 59.0342 19.9857C59.0146 19.9659 59.0149 19.934 59.0345 19.9145L59.0347 19.9144L61.0773 17.8879L61.3659 17.6016L61.1445 17.2606C60.9669 16.9871 60.8639 16.6646 60.8639 16.3182C60.8639 15.5061 61.4285 14.8176 62.1955 14.6259L62.5742 14.5312V14.1408V9.01709C62.5742 8.9892 62.5971 8.96631 62.625 8.96631C62.6529 8.96631 62.6758 8.9892 62.6758 9.01709V14.1405V14.5307L63.0543 14.6255C63.8216 14.8176 64.3861 15.5059 64.3861 16.3179C64.3861 17.2782 63.5986 18.0654 62.625 18.0654C62.3161 18.0654 62.0265 17.9858 61.7737 17.8463L61.4459 17.6655L61.1801 17.9292L59.1066 19.9862ZM64.2849 16.3182C64.2849 15.4046 63.5352 14.6723 62.6254 14.6723C61.7157 14.6723 60.9658 15.4041 60.9658 16.3182C60.9658 17.2319 61.7156 17.9642 62.6254 17.9642C63.5352 17.9642 64.2849 17.2319 64.2849 16.3182Z" fill="#FFDD00"/>
<path d="M59.1066 19.9862L59.1064 19.9864C59.087 20.0057 59.055 20.0064 59.0342 19.9857C59.0146 19.9659 59.0149 19.934 59.0345 19.9145L59.0347 19.9144L61.0773 17.8879L61.3659 17.6016L61.1445 17.2606C60.9669 16.9871 60.8639 16.6646 60.8639 16.3182C60.8639 15.5061 61.4285 14.8176 62.1955 14.6259L62.5742 14.5312V14.1408V9.01709C62.5742 8.9892 62.5971 8.96631 62.625 8.96631C62.6529 8.96631 62.6758 8.9892 62.6758 9.01709V14.1405V14.5307L63.0543 14.6255C63.8216 14.8176 64.3861 15.5059 64.3861 16.3179C64.3861 17.2782 63.5986 18.0654 62.625 18.0654C62.3161 18.0654 62.0265 17.9858 61.7737 17.8463L61.4459 17.6655L61.1801 17.9292L59.1066 19.9862ZM64.2849 16.3182C64.2849 15.4046 63.5352 14.6723 62.6254 14.6723C61.7157 14.6723 60.9658 15.4041 60.9658 16.3182C60.9658 17.2319 61.7156 17.9642 62.6254 17.9642C63.5352 17.9642 64.2849 17.2319 64.2849 16.3182Z" stroke="white"/>
<path d="M59.1066 19.9862L59.1064 19.9864C59.087 20.0057 59.055 20.0064 59.0342 19.9857C59.0146 19.9659 59.0149 19.934 59.0345 19.9145L59.0347 19.9144L61.0773 17.8879L61.3659 17.6016L61.1445 17.2606C60.9669 16.9871 60.8639 16.6646 60.8639 16.3182C60.8639 15.5061 61.4285 14.8176 62.1955 14.6259L62.5742 14.5312V14.1408V9.01709C62.5742 8.9892 62.5971 8.96631 62.625 8.96631C62.6529 8.96631 62.6758 8.9892 62.6758 9.01709V14.1405V14.5307L63.0543 14.6255C63.8216 14.8176 64.3861 15.5059 64.3861 16.3179C64.3861 17.2782 63.5986 18.0654 62.625 18.0654C62.3161 18.0654 62.0265 17.9858 61.7737 17.8463L61.4459 17.6655L61.1801 17.9292L59.1066 19.9862ZM64.2849 16.3182C64.2849 15.4046 63.5352 14.6723 62.6254 14.6723C61.7157 14.6723 60.9658 15.4041 60.9658 16.3182C60.9658 17.2319 61.7156 17.9642 62.6254 17.9642C63.5352 17.9642 64.2849 17.2319 64.2849 16.3182Z" stroke="#FFDD00"/>
<path d="M69.3122 11.77V23.3342C69.3122 23.3772 69.3173 23.4198 69.3273 23.4616L71.1085 30.9486C71.1676 31.1968 71.3894 31.372 71.6442 31.372H75.2992C75.5544 31.372 75.7758 31.1968 75.8349 30.9486L77.6162 23.4616C77.6261 23.4198 77.6312 23.3772 77.6312 23.3342V11.77C77.6312 11.4656 77.3848 11.2192 77.0804 11.2192H69.863C69.5586 11.2192 69.3122 11.4656 69.3122 11.77ZM70.4138 12.3208H76.5296V23.2696L74.8641 30.2704H72.0793L70.4138 23.2696V12.3208Z" fill="white"/>
<path d="M69.3122 11.77V23.3342C69.3122 23.3772 69.3173 23.4198 69.3273 23.4616L71.1085 30.9486C71.1676 31.1968 71.3894 31.372 71.6442 31.372H75.2992C75.5544 31.372 75.7758 31.1968 75.8349 30.9486L77.6162 23.4616C77.6261 23.4198 77.6312 23.3772 77.6312 23.3342V11.77C77.6312 11.4656 77.3848 11.2192 77.0804 11.2192H69.863C69.5586 11.2192 69.3122 11.4656 69.3122 11.77ZM70.4138 12.3208H76.5296V23.2696L74.8641 30.2704H72.0793L70.4138 23.2696V12.3208Z" fill="#FFDD00"/>
<path d="M70.7549 33.333C70.4505 33.333 70.2041 33.5794 70.2041 33.8838V39.5627C70.2041 39.8671 70.4505 40.1135 70.7549 40.1135H76.4793C76.7837 40.1135 77.0301 39.8671 77.0301 39.5627V33.8838C77.0301 33.5794 76.7837 33.333 76.4793 33.333H70.7549ZM75.9289 39.0119H71.306V34.4346H75.9289V39.0119Z" fill="white"/>
<path d="M70.7549 33.333C70.4505 33.333 70.2041 33.5794 70.2041 33.8838V39.5627C70.2041 39.8671 70.4505 40.1135 70.7549 40.1135H76.4793C76.7837 40.1135 77.0301 39.8671 77.0301 39.5627V33.8838C77.0301 33.5794 76.7837 33.333 76.4793 33.333H70.7549ZM75.9289 39.0119H71.306V34.4346H75.9289V39.0119Z" fill="#FFDD00"/>
</svg>
