<svg width="23" height="24" viewBox="0 0 23 24" fill="none" xmlns="http://www.w3.org/2000/svg">
<path d="M9.52386 14.0999C7.32855 11.9046 6.83286 9.7093 6.72104 8.82975C6.68979 8.58655 6.77348 8.34266 6.94747 8.16989L8.72402 6.39413C8.98535 6.13296 9.03173 5.72593 8.83585 5.41266L6.00724 1.02046C5.79053 0.673572 5.34557 0.548378 4.97978 0.73137L0.438864 2.86997C0.14306 3.01563 -0.030928 3.32992 0.00265731 3.65792C0.240588 5.91827 1.22602 11.4747 6.68654 16.9357C12.1471 22.3966 17.7027 23.3816 19.9643 23.6195C20.2923 23.6531 20.6066 23.4791 20.7522 23.1833L22.8908 18.6424C23.0731 18.2774 22.9488 17.8336 22.6033 17.6165L18.2111 14.7887C17.898 14.5926 17.491 14.6387 17.2297 14.8998L15.4539 16.6763C15.2811 16.8503 15.0372 16.934 14.794 16.9027C13.9145 16.7909 11.7192 16.2952 9.52386 14.0999Z" fill="white"/>
<path d="M18.2413 12.9169C17.8032 12.9169 17.4482 12.5619 17.4482 12.1238C17.4445 8.84023 14.7835 6.17928 11.4999 6.17556C11.0619 6.17556 10.7068 5.82048 10.7068 5.38246C10.7068 4.94444 11.0619 4.58936 11.4999 4.58936C15.6592 4.59394 19.0298 7.96456 19.0344 12.1238C19.0344 12.5619 18.6793 12.9169 18.2413 12.9169Z" fill="white"/>
<path d="M22.2068 12.9171C21.7688 12.9171 21.4137 12.562 21.4137 12.124C21.4076 6.65132 16.9726 2.21635 11.4999 2.21023C11.0619 2.21023 10.7068 1.85515 10.7068 1.41713C10.7068 0.979108 11.0619 0.624023 11.4999 0.624023C17.8483 0.631017 22.9929 5.77565 22.9999 12.124C22.9999 12.3344 22.9163 12.5361 22.7676 12.6848C22.6189 12.8336 22.4171 12.9171 22.2068 12.9171Z" fill="white"/>
</svg>
