<svg width="105" height="111" viewBox="0 0 105 111" fill="none" xmlns="http://www.w3.org/2000/svg">
<path d="M87.1808 96.2133V15.7222C87.1808 15.3632 86.9052 15.0718 86.5656 15.0718H78.4326V13.0647C78.4326 11.0294 76.9827 9.25041 75.062 9.11427C72.9546 8.96511 71.195 10.7324 71.195 12.9251V15.0714H24.3954C24.0558 15.0714 23.7801 15.3628 23.7801 15.7218V18.0714C23.7801 18.4305 24.0558 18.7218 24.3954 18.7218C24.735 18.7218 25.0106 18.4305 25.0106 18.0714V16.3726H71.195V20.1067H19.2036C18.864 20.1067 18.5884 20.3981 18.5884 20.7571V101.244C18.5884 101.603 18.864 101.895 19.2036 101.895H81.3739C81.7135 101.895 81.9891 101.603 81.9891 101.244V20.7571C81.9891 20.3981 81.7135 20.1067 81.3739 20.1067H72.4255V16.3726H85.9504V95.5633H84.092C83.7524 95.5633 83.4767 95.8547 83.4767 96.2137C83.4767 96.5727 83.7524 96.8641 84.092 96.8641H86.5656C86.9052 96.8637 87.1808 96.5727 87.1808 96.2133ZM80.7586 21.4075V100.594H19.8188V21.4075H71.195V29.2447C71.195 31.28 72.6445 33.0595 74.5653 33.1956C76.6722 33.3452 78.4326 31.5779 78.4326 29.3848V25.4347C78.4326 25.0757 78.157 24.7843 77.8174 24.7843C77.4778 24.7843 77.2022 25.0757 77.2022 25.4347V29.2933C77.2022 30.5759 76.3322 31.7197 75.1288 31.8827C73.6724 32.08 72.4259 30.8833 72.4259 29.3852V21.4075H80.7586ZM77.2022 15.0718H72.4255V12.9256C72.4255 11.5368 73.4968 10.4064 74.8138 10.4064C76.1304 10.4064 77.2018 11.5363 77.2018 12.9256V15.0718H77.2022Z" fill="#FFDD00" stroke="#FFDD00"/>
<path d="M30.281 74.0273H39.3327C39.6728 74.0273 39.948 73.7359 39.948 73.3769V63.8257C39.948 63.4667 39.6728 63.1753 39.3327 63.1753H30.281C29.941 63.1753 29.6658 63.4667 29.6658 63.8257V73.3769C29.6658 73.7363 29.941 74.0273 30.281 74.0273ZM30.8962 64.4761H38.7175V72.7265H30.8962V64.4761Z" fill="#FFDD00"/>
<path d="M38.7175 89.3656H30.8962V81.1152H38.7179C39.0575 81.1152 39.3332 80.8243 39.3332 80.4648C39.3332 80.1058 39.0579 79.8145 38.7179 79.8145H30.281C29.9414 79.8145 29.6658 80.1058 29.6658 80.4648V90.016C29.6658 90.3751 29.9414 90.6664 30.281 90.6664H39.3327C39.6724 90.6664 39.948 90.3751 39.948 90.016V85.8908C39.948 85.5318 39.6728 85.2404 39.3327 85.2404C38.9931 85.2404 38.7175 85.5314 38.7175 85.8908V89.3656Z" fill="#FFDD00"/>
<path d="M65.6353 32.3013H50.6626C50.323 32.3013 50.0474 32.5926 50.0474 32.9517C50.0474 33.3107 50.323 33.6021 50.6626 33.6021H65.6353C65.975 33.6021 66.2506 33.3107 66.2506 32.9517C66.2506 32.5926 65.9754 32.3013 65.6353 32.3013Z" fill="#FFDD00"/>
<path d="M53.2407 36.7844H50.6628C50.3232 36.7844 50.0476 37.0758 50.0476 37.4348C50.0476 37.7938 50.3232 38.0852 50.6628 38.0852H53.2407C53.5803 38.0852 53.8559 37.7938 53.8559 37.4348C53.8559 37.0758 53.5803 36.7844 53.2407 36.7844Z" fill="#FFDD00"/>
<path d="M62.5483 37.4348C62.5483 37.0758 62.2727 36.7844 61.9331 36.7844H56.1035C55.7639 36.7844 55.4883 37.0758 55.4883 37.4348C55.4883 37.7938 55.7639 38.0852 56.1035 38.0852H61.9331C62.2727 38.0852 62.5483 37.7938 62.5483 37.4348Z" fill="#FFDD00"/>
<path d="M53.4019 50.3711H69.7531C70.0927 50.3711 70.3684 50.0797 70.3684 49.7207C70.3684 49.3617 70.0927 49.0703 69.7531 49.0703H53.4019C53.0622 49.0703 52.7866 49.3617 52.7866 49.7207C52.7866 50.0797 53.0618 50.3711 53.4019 50.3711Z" fill="#FFDD00"/>
<path d="M55.7841 53.5537H50.6628C50.3232 53.5537 50.0476 53.8451 50.0476 54.2041C50.0476 54.5631 50.3232 54.8545 50.6628 54.8545H55.7841C56.1237 54.8545 56.3993 54.5631 56.3993 54.2041C56.3993 53.8447 56.1237 53.5537 55.7841 53.5537Z" fill="#FFDD00"/>
<path d="M50.6628 67.1404H69.7531C70.0928 67.1404 70.3684 66.849 70.3684 66.49C70.3684 66.131 70.0928 65.8396 69.7531 65.8396H50.6628C50.3232 65.8396 50.0476 66.131 50.0476 66.49C50.0476 66.849 50.3228 67.1404 50.6628 67.1404Z" fill="#FFDD00"/>
<path d="M59.2619 70.3228H50.6626C50.323 70.3228 50.0474 70.6141 50.0474 70.9731C50.0474 71.3322 50.323 71.6235 50.6626 71.6235H59.2619C59.6015 71.6235 59.8772 71.3322 59.8772 70.9731C59.8772 70.6137 59.6019 70.3228 59.2619 70.3228Z" fill="#FFDD00"/>
<path d="M61.1953 70.9731C61.1953 71.3322 61.4709 71.6235 61.8105 71.6235H63.3724C63.712 71.6235 63.9877 71.3322 63.9877 70.9731C63.9877 70.6141 63.712 70.3228 63.3724 70.3228H61.8105C61.4709 70.3228 61.1953 70.6137 61.1953 70.9731Z" fill="#FFDD00"/>
<path d="M55.7841 82.6089H50.6628C50.3232 82.6089 50.0476 82.9003 50.0476 83.2593C50.0476 83.6183 50.3232 83.9097 50.6628 83.9097H55.7841C56.1237 83.9097 56.3993 83.6183 56.3993 83.2593C56.3993 82.8998 56.1237 82.6089 55.7841 82.6089Z" fill="#FFDD00"/>
<path d="M50.6628 88.3926H57.4985C57.8381 88.3926 58.1137 88.1012 58.1137 87.7422C58.1137 87.3832 57.8381 87.0918 57.4985 87.0918H50.6628C50.3232 87.0918 50.0476 87.3832 50.0476 87.7422C50.0476 88.1016 50.3228 88.3926 50.6628 88.3926Z" fill="#FFDD00"/>
<path d="M34.6431 52.7092L33.6197 51.183C33.4233 50.8899 33.0394 50.8209 32.7621 51.0286C32.4848 51.2363 32.4196 51.6422 32.6161 51.9353L34.0147 54.0213C34.2182 54.3252 34.6226 54.3864 34.8986 54.1553L41.6133 48.5285C41.8795 48.3057 41.9242 47.8963 41.7134 47.6149V47.6145C41.5025 47.3331 41.1153 47.2858 40.8492 47.5087L34.6431 52.7092Z" fill="#FFDD00"/>
<path d="M34.6284 85.8821L33.6202 84.3784C33.4238 84.0852 33.0399 84.0163 32.7626 84.224C32.4853 84.4317 32.4201 84.8375 32.6166 85.1306L34.0152 87.2167C34.2244 87.5284 34.6432 87.5831 34.918 87.3342L41.0974 81.7274C41.355 81.4937 41.3849 81.083 41.1634 80.8103L41.163 80.8099C40.9419 80.5371 40.5535 80.5059 40.2955 80.7401L34.6284 85.8821Z" fill="#FFDD00"/>
<path d="M30.281 57.3881H39.3327C39.6724 57.3881 39.948 57.0967 39.948 56.7377V52.6125C39.948 52.2535 39.6728 51.9621 39.3327 51.9621C38.9931 51.9621 38.7175 52.2531 38.7175 52.6125V56.0873H30.8962V47.8369H38.7179C39.0575 47.8369 39.3332 47.546 39.3332 47.1865C39.3332 46.8275 39.0579 46.5361 38.7179 46.5361H30.281C29.9414 46.5361 29.6658 46.8275 29.6658 47.1865V56.7377C29.6658 57.0972 29.941 57.3881 30.281 57.3881Z" fill="#FFDD00"/>
<path d="M34.6431 36.0701L33.6197 34.5439C33.4233 34.2508 33.0394 34.1818 32.7621 34.3895C32.4848 34.5972 32.4196 35.0031 32.6161 35.2962L34.0147 37.3826C34.2173 37.6853 34.6213 37.7486 34.8986 37.5166L41.6133 31.8898C41.8795 31.667 41.9242 31.2577 41.7134 30.9763V30.9758C41.5025 30.6944 41.1153 30.6472 40.8492 30.87L34.6431 36.0701Z" fill="#FFDD00"/>
<path d="M30.281 40.7487H39.3327C39.6724 40.7487 39.948 40.4573 39.948 40.0983V35.9731C39.948 35.6141 39.6728 35.3227 39.3327 35.3227C38.9931 35.3227 38.7175 35.6137 38.7175 35.9731V39.4479H30.8962V31.1975H38.7179C39.0575 31.1975 39.3332 30.9066 39.3332 30.5471C39.3332 30.1881 39.0579 29.8967 38.7179 29.8967H30.281C29.9414 29.8967 29.6658 30.1881 29.6658 30.5471V40.0983C29.6658 40.4578 29.941 40.7487 30.281 40.7487Z" fill="#FFDD00"/>
<path d="M36.3967 66.0044L34.8066 67.6824L33.2164 66.0044C32.976 65.7508 32.5864 65.7512 32.3464 66.0053C32.1065 66.2594 32.1069 66.6713 32.3473 66.9249L33.9358 68.6012L32.3473 70.2775C32.1069 70.5311 32.1065 70.943 32.3464 71.1971C32.5864 71.4512 32.976 71.4517 33.2164 71.198L34.8066 69.52L36.3967 71.198C36.6371 71.4517 37.0267 71.4512 37.2667 71.1971C37.5066 70.943 37.5062 70.5311 37.2659 70.2775L35.6773 68.6012L37.2659 66.9249C37.5062 66.6713 37.5066 66.2594 37.2667 66.0053C37.0267 65.7512 36.6375 65.7508 36.3967 66.0044Z" fill="#FFDD00"/>
<path d="M50.8207 49.0703H50.6628C50.3232 49.0703 50.0476 49.3617 50.0476 49.7207C50.0476 50.0797 50.3232 50.3711 50.6628 50.3711H50.8207C51.1604 50.3711 51.436 50.0797 51.436 49.7207C51.436 49.3613 51.1604 49.0703 50.8207 49.0703Z" fill="#FFDD00"/>
<path d="M57.9944 54.2041C57.9944 54.5631 58.27 54.8545 58.6096 54.8545H63.4388C63.7784 54.8545 64.054 54.5631 64.054 54.2041C64.054 53.8451 63.7784 53.5537 63.4388 53.5537H58.6096C58.2696 53.5537 57.9944 53.8447 57.9944 54.2041Z" fill="#FFDD00"/>
<path d="M58.729 83.9097H69.7532C70.0928 83.9097 70.3684 83.6183 70.3684 83.2593C70.3684 82.9003 70.0928 82.6089 69.7532 82.6089H58.729C58.3894 82.6089 58.1138 82.9003 58.1138 83.2593C58.1138 83.6183 58.389 83.9097 58.729 83.9097Z" fill="#FFDD00"/>
<path d="M60.0813 88.3926H60.3442C60.6838 88.3926 60.9594 88.1012 60.9594 87.7422C60.9594 87.3832 60.6838 87.0918 60.3442 87.0918H60.0813C59.7417 87.0918 59.4661 87.3832 59.4661 87.7422C59.4661 88.1016 59.7417 88.3926 60.0813 88.3926Z" fill="#FFDD00"/>
<path d="M91.0547 88.4968H89.8242V89.7976H91.0547V88.4968Z" fill="#FFDD00"/>
<path d="M85.6877 99.7043H84.4573V101.005H85.6877V99.7043Z" fill="#FFDD00"/>
<path d="M91.0547 85.8953H89.8242V87.196H91.0547V85.8953Z" fill="#FFDD00"/>
<path d="M91.0547 91.0984H89.8242V92.3992H91.0547V91.0984Z" fill="#FFDD00"/>
<path d="M88.9099 99.27L89.6277 100.327C90.0325 100.02 90.3758 99.6143 90.6194 99.156L89.5469 98.519C89.3902 98.813 89.17 99.0728 88.9099 99.27Z" fill="#FFDD00"/>
<path d="M86.9182 99.7041V101.005C87.5699 101.005 87.8468 101.025 88.2574 100.944L88.0338 99.6655C87.748 99.7206 87.5544 99.7041 86.9182 99.7041Z" fill="#FFDD00"/>
<path d="M91.0547 93.7H89.8242V95.0007H91.0547V93.7Z" fill="#FFDD00"/>
<path d="M91.0548 96.3015H89.8243C89.8243 96.4476 89.8276 97.4228 89.8186 97.5555L91.0458 97.6495C91.0597 97.4549 91.0548 96.5157 91.0548 96.3015Z" fill="#FFDD00"/>
<path d="M15.1758 28.9597H13.9453V30.2605H15.1758V28.9597Z" fill="#FFDD00"/>
<path d="M15.1758 34.1628H13.9453V35.4636H15.1758V34.1628Z" fill="#FFDD00"/>
<path d="M15.1758 31.5613H13.9453V32.8621H15.1758V31.5613Z" fill="#FFDD00"/>
<path d="M15.1758 26.3582H13.9453V27.6589H15.1758V26.3582Z" fill="#FFDD00"/>
<path d="M15.1758 21.155H13.9453V22.4558H15.1758V21.155Z" fill="#FFDD00"/>
<path d="M15.1758 23.7566H13.9453V25.0574H15.1758V23.7566Z" fill="#FFDD00"/>
</svg>
