<svg width="39" height="50" viewBox="0 0 39 50" fill="none" xmlns="http://www.w3.org/2000/svg">
<path d="M37.134 47.9781V1.90754H2.00535V47.9781H37.134ZM38.458 0.576527V0.654282H38.465V0.962364V48.6436C38.465 49.0112 38.1672 49.3091 37.7995 49.3091H1.33984C0.97216 49.3091 0.674341 49.0112 0.674341 48.6436V1.24203C0.674341 0.874352 0.972159 0.576527 1.33984 0.576527H38.15H38.458Z" fill="#FFDD00" stroke="#FFDD00" stroke-width="0.616162"/>
<path d="M26.5448 8.43701H19.2705C19.1532 8.43701 19.0581 8.56967 19.0581 8.73313C19.0581 8.89658 19.1532 9.02924 19.2705 9.02924H26.5448C26.662 9.02924 26.7571 8.89658 26.7571 8.73313C26.7571 8.56967 26.662 8.43701 26.5448 8.43701Z" fill="#FFDD00"/>
<path d="M26.5448 10.8062H19.2705C19.1532 10.8062 19.0581 10.9388 19.0581 11.1023C19.0581 11.2657 19.1532 11.3984 19.2705 11.3984H26.5448C26.662 11.3984 26.7571 11.2657 26.7571 11.1023C26.7571 10.9388 26.662 10.8062 26.5448 10.8062Z" fill="#FFDD00"/>
<path d="M26.5448 13.1748H19.2705C19.1532 13.1748 19.0581 13.3075 19.0581 13.4709C19.0581 13.6344 19.1532 13.767 19.2705 13.767H26.5448C26.662 13.767 26.7571 13.6344 26.7571 13.4709C26.7571 13.3075 26.662 13.1748 26.5448 13.1748Z" fill="#FFDD00"/>
<path d="M31.6177 25.0195H30.9028V25.7344H31.6177V25.0195Z" fill="#FFDD00"/>
<path d="M31.6177 27.8789H30.9028V28.5938H31.6177V27.8789Z" fill="#FFDD00"/>
<path d="M31.6177 29.3086H30.9028V30.0234H31.6177V29.3086Z" fill="#FFDD00"/>
<path d="M31.6177 32.168H30.9028V32.8828H31.6177V32.168Z" fill="#FFDD00"/>
<path d="M31.6177 33.5977H30.9028V34.3125H31.6177V33.5977Z" fill="#FFDD00"/>
<path d="M31.6177 26.4492H30.9028V27.1641H31.6177V26.4492Z" fill="#FFDD00"/>
<path d="M31.6177 30.7383H30.9028V31.4531H31.6177V30.7383Z" fill="#FFDD00"/>
<path d="M10.0878 13.9813L10.0878 13.9813L10.0878 13.9813ZM10.0878 13.9813L10.6994 14.829C10.7732 14.9314 10.9286 14.9314 11.0024 14.829L11.614 13.9812L11.614 13.9812L10.0878 13.9813ZM12.2729 9.4028H12.2739C13.2707 9.4028 14.3515 10.2722 14.3515 11.5009V15.2359C14.3515 15.3367 14.2676 15.417 14.1661 15.417H13.2993V15.9854C13.2993 16.0862 13.2155 16.1665 13.114 16.1665C13.0125 16.1665 12.9286 16.0862 12.9286 15.9854V12.9254C12.9286 12.8246 13.0125 12.7443 13.114 12.7443C13.2155 12.7443 13.2993 12.8246 13.2993 12.9254V15.0549H13.9808V11.501C13.9808 10.62 13.2991 9.88974 12.4183 9.78017L12.1211 11.0538C12.1018 11.1367 12.0264 11.1947 11.9404 11.1947H11.2704L11.6461 13.852L11.6461 13.8521L11.6156 13.8564L12.2729 9.4028ZM12.2729 9.4028H12.2718H12.2708H12.2697H12.2687H12.2676H12.2666H12.2655H12.2645H12.2635H12.2624H12.2614H12.2604H12.2593H12.2583H12.2573H12.2563H12.2552H12.2542H12.2532H12.2522H12.2511H12.2501H12.2491H12.2481H12.2471H12.2461H12.2451H12.244H12.243H12.242H12.241H12.24H12.239H12.238H12.237H12.236H12.235H12.234H12.233H12.232H12.231H12.23H12.2291H12.2281H12.2271H12.2261H12.2251H12.2241H12.2231H12.2222H12.2212H12.2202H12.2192H12.2182H12.2173H12.2163H12.2153H12.2144H12.2134H12.2124H12.2114H12.2105H12.2095H12.2085H12.2076H12.2066H12.2057H12.2047H12.2037H12.2028H12.2018H12.2009H12.1999H12.199H12.198H12.1971H12.1961H12.1952H12.1942H12.1933H12.1923H12.1914H12.1904H12.1895H12.1885H12.1876H12.1867H12.1857H12.1848H12.1838H12.1829H12.182H12.181H12.1801H12.1792H12.1782H12.1773H12.1764H12.1754H12.1745H12.1736H12.1727H12.1717H12.1708H12.1699H12.169H12.1681H12.1671H12.1662H12.1653H12.1644H12.1635H12.1625H12.1616H12.1607H12.1598H12.1589H12.158H12.1571H12.1562H12.1552H12.1543H12.1534H12.1525H12.1516H12.1507H12.1498H12.1489H12.148H12.1471H12.1462H12.1453H12.1444H12.1435H12.1426H12.1417H12.1408H12.1399H12.139H12.1381H12.1372H12.1363H12.1354H12.1345H12.1336H12.1327H12.1319H12.131H12.1301H12.1292H12.1283H12.1274H12.1265H12.1256H12.1248H12.1239H12.123H12.1221H12.1212H12.1203H12.1194H12.1186H12.1177H12.1168H12.1159H12.115H12.1142H12.1133H12.1124H12.1115H12.1107H12.1098H12.1089H12.108H12.1072H12.1063H12.1054H12.1045H12.1037H12.1028H12.1019H12.101H12.1002H12.0993H12.0984H12.0976H12.0967H12.0958H12.0949H12.0941H12.0932H12.0923H12.0915H12.0906H12.0897H12.0889H12.088H12.0871H12.0863H12.0854H12.0845H12.0837H12.0828H12.0819H12.0811H12.0802H12.0794H12.0785H12.0776H12.0768H12.0759H12.075H12.0742H12.0733H12.0725H12.0716H12.0707H12.0699H12.069H12.0682H12.0673H12.0664H12.0656H12.0647H12.0639H12.063H12.0621H12.0613H12.0604H12.0596H12.0587H12.0578H12.057H12.0561H12.0553H12.0544H12.0536H12.0527H12.0518H12.051H12.0501H12.0493H12.0484H12.0476H12.0467H12.0458H12.045H12.0441H12.0433H12.0424H12.0416H12.0407H12.0398H12.039H12.0381H12.0373H12.0364H12.0356H12.0347H12.0339H12.033H12.0321H12.0313H12.0304H12.0296H12.0287H12.0279H12.027H12.0261H12.0253H12.0244H12.0236H12.0227H12.0218H12.021H12.0201H12.0193H12.0184H12.0176H12.0167H12.0158H12.015H12.0141H12.0133H12.0124H12.0115H12.0107H12.0098H12.009H12.0081H12.0072H12.0064H12.0055H12.0047H12.0038H12.0029H12.0021H12.0012H12.0003H11.9995H11.9986H11.9977H11.9969H11.996H11.9952H11.9943H11.9934H11.9926H11.9917H11.9908H11.99H11.9891H11.9882H11.9874H11.9865H11.9856H11.9848H11.9839H11.983H11.9821H11.9813H11.9804H11.9795H11.9787H11.9778H11.9769H11.976H11.9752H11.9743H11.9734H11.9725H11.9717H11.9708H11.9699H11.969H11.9682H11.9673H11.9664H11.9655H11.9646H11.9638H11.9629H11.962H11.9611H11.9602H11.9594H11.9585H11.9576H11.9567H11.9558H11.9549H11.954H11.9532H11.9523H11.9514H11.9505H11.9496H11.9487H11.9478H11.9469H11.946H11.9452H11.9443H11.9434H11.9425H11.9416H11.9407H11.9398H11.9389H11.938H11.9371H11.9362H11.9353H11.9344H11.9335H11.9326H11.9317H11.9308H11.9299H11.929H11.9281H11.9272H11.9263H11.9253H11.9244H11.9235H11.9226H11.9217H11.9208H11.9199H11.919H11.9181H11.9171H11.9162H11.9153H11.9144H11.9135H11.9125H11.9116H11.9107H11.9098H11.9089H11.9079H11.907H11.9061H11.9052H11.9042H11.9033H11.9024H11.9023M12.2729 9.4028H11.9023M11.9023 9.4028C12.3779 9.0635 12.6883 8.51728 12.6883 7.90106C12.6883 6.87232 11.8257 6.03706 10.7672 6.03706C9.70876 6.03706 8.84614 6.87242 8.84614 7.90106C8.84614 8.42639 9.07168 8.9009 9.43283 9.23964L9.39767 9.3207L9.36199 9.40296C8.16299 9.3942 7.18306 10.3378 7.18306 11.501V15.236C7.18306 15.3368 7.2669 15.4171 7.36841 15.4171H8.28979V15.9855C8.28979 16.0863 8.37363 16.1666 8.47514 16.1666C8.57665 16.1666 8.66049 16.0863 8.66049 15.9855V12.9254C8.66049 12.8246 8.57665 12.7443 8.47514 12.7443C8.37363 12.7443 8.28979 12.8246 8.28979 12.9254V15.0549H7.55376V11.5009C7.55376 10.5658 8.32204 9.80099 9.28085 9.76775L9.58082 11.0538C9.60017 11.1367 9.67556 11.1947 9.76155 11.1947H10.4315L10.0557 13.8521L11.9023 9.4028ZM9.21695 7.90096C9.21695 7.07378 9.91149 6.39922 10.7673 6.39922C11.6231 6.39922 12.3177 7.07388 12.3177 7.90096C12.3177 8.72804 11.6231 9.4027 10.7673 9.4027C9.91149 9.4027 9.21695 8.72814 9.21695 7.90096ZM10.368 10.8323H9.90953L9.67311 9.81875L10.1925 10.4141L10.368 10.8323ZM11.269 13.8308L10.851 14.4103L10.433 13.8308L10.8057 11.1946H10.8962L11.269 13.8308ZM10.629 10.4997H11.073L10.9335 10.8323H10.7686L10.629 10.4997ZM11.2638 10.1375H10.4382L10.1133 9.76496H11.5888L11.2638 10.1375ZM12.029 9.81875L11.7926 10.8323H11.3342L11.4568 10.5401L11.5096 10.4141L12.029 9.81875Z" fill="#FFDD00" stroke="#FFDD00" stroke-width="0.0616162"/>
<path d="M8.34862 19.5229C7.6638 19.5229 7.10693 20.0789 7.10693 20.7622C7.10693 21.4456 7.66404 22.0016 8.34862 22.0016C9.03344 22.0016 9.59054 21.4456 9.59054 20.7622C9.59054 20.0789 9.03344 19.5229 8.34862 19.5229ZM8.34862 21.2867C8.05815 21.2867 7.82178 21.0515 7.82178 20.7622C7.82178 20.473 8.05815 20.2378 8.34862 20.2378C8.63932 20.2378 8.8757 20.473 8.8757 20.7622C8.8757 21.0515 8.63932 21.2867 8.34862 21.2867Z" fill="#FFDD00"/>
<path d="M26.365 20.2817H12.9355C12.7191 20.2817 12.5435 20.4144 12.5435 20.5779C12.5435 20.7413 12.7191 20.874 12.9355 20.874H26.365C26.5814 20.874 26.757 20.7413 26.757 20.5779C26.757 20.4144 26.5814 20.2817 26.365 20.2817Z" fill="#FFDD00"/>
<path d="M26.365 24.4272H12.9355C12.7191 24.4272 12.5435 24.5599 12.5435 24.7234C12.5435 24.8868 12.7191 25.0195 12.9355 25.0195H26.365C26.5814 25.0195 26.757 24.8868 26.757 24.7234C26.757 24.5599 26.5814 24.4272 26.365 24.4272Z" fill="#FFDD00"/>
<path d="M26.365 28.5732H12.9355C12.7191 28.5732 12.5435 28.7059 12.5435 28.8694C12.5435 29.0328 12.7191 29.1655 12.9355 29.1655H26.365C26.5814 29.1655 26.757 29.0328 26.757 28.8694C26.757 28.7059 26.5814 28.5732 26.365 28.5732Z" fill="#FFDD00"/>
<path d="M26.365 32.7188H12.9355C12.7191 32.7188 12.5435 32.8514 12.5435 33.0149C12.5435 33.1783 12.7191 33.311 12.9355 33.311H26.365C26.5814 33.311 26.757 33.1783 26.757 33.0149C26.757 32.8514 26.5814 32.7188 26.365 32.7188Z" fill="#FFDD00"/>
<path d="M8.34862 23.7422C7.6638 23.7422 7.10693 24.2981 7.10693 24.9815C7.10693 25.6649 7.66404 26.2208 8.34862 26.2208C9.03344 26.2208 9.59054 25.6649 9.59054 24.9815C9.59054 24.2981 9.03344 23.7422 8.34862 23.7422ZM7.82178 24.9815C7.82178 24.6922 8.05815 24.457 8.34862 24.457C8.63932 24.457 8.8757 24.6922 8.8757 24.9815C8.8757 25.6744 7.82178 25.6746 7.82178 24.9815Z" fill="#FFDD00"/>
<path d="M8.34862 27.9624C7.6638 27.9624 7.10693 28.5183 7.10693 29.2017C7.10693 29.8851 7.66404 30.441 8.34862 30.441C9.03344 30.441 9.59054 29.8851 9.59054 29.2017C9.59054 28.5183 9.03344 27.9624 8.34862 27.9624ZM7.82178 29.2015C7.82178 28.5085 8.8757 28.5083 8.8757 29.2015C8.8757 29.8946 7.82178 29.8949 7.82178 29.2015Z" fill="#FFDD00"/>
<path d="M8.34862 32.1816C7.6638 32.1816 7.10693 32.7376 7.10693 33.4209C7.10693 34.1043 7.66404 34.6602 8.34862 34.6602C9.03344 34.6602 9.59054 34.1043 9.59054 33.4209C9.59054 32.7376 9.03344 32.1816 8.34862 32.1816ZM8.34862 33.9454C7.65236 33.9454 7.65212 32.8965 8.34862 32.8965C8.63932 32.8965 8.8757 33.1317 8.8757 33.4209C8.8757 33.7102 8.63932 33.9454 8.34862 33.9454Z" fill="#FFDD00"/>
<path d="M31.6857 42.5021H31.9938V42.194V41.5733V41.2653H31.6857H8.33014V39.5694H32.0877H32.3957V39.2613V38.6406V38.3325H32.0877H7.61796C7.44442 38.3325 7.27604 38.3863 7.14462 38.4872C7.01291 38.5884 6.90579 38.7496 6.90579 38.951V41.8837C6.90579 42.0849 7.01263 42.2462 7.14452 42.3475C7.27603 42.4485 7.44445 42.5021 7.61796 42.5021H31.6857Z" fill="#FFDD00" stroke="#FFDD00" stroke-width="0.616162"/>
</svg>
