<svg width="36" height="34" viewBox="0 0 36 34" fill="none" xmlns="http://www.w3.org/2000/svg">
<rect x="1" y="1" width="34" height="32" rx="4" stroke="#F2C94C" stroke-width="2"/>
<path d="M22.5905 18.9223L22.583 18.9848C20.7505 18.0715 20.5588 17.9498 20.3222 18.3048C20.158 18.5506 19.6797 19.1082 19.5355 19.2731C19.3897 19.4356 19.2447 19.4482 18.9972 19.3357C18.7472 19.2107 17.9447 18.9481 16.9947 18.0981C16.2547 17.4356 15.758 16.6231 15.6113 16.3731C15.3672 15.9515 15.878 15.8915 16.343 15.0115C16.4263 14.8365 16.3838 14.699 16.3222 14.5748C16.2597 14.4498 15.7622 13.2248 15.5538 12.7365C15.3538 12.2498 15.148 12.3115 14.9938 12.3115C14.5138 12.2698 14.163 12.2765 13.8538 12.5981C12.5088 14.0765 12.848 15.6015 13.9988 17.2231C16.2605 20.1831 17.4655 20.7282 19.6688 21.4848C20.2638 21.674 20.8063 21.6473 21.2355 21.5857C21.7138 21.5098 22.708 20.9848 22.9155 20.3973C23.128 19.8098 23.128 19.3223 23.0655 19.2098C23.0038 19.0973 22.8405 19.0348 22.5905 18.9223Z" fill="#F2C94C"/>
<mask id="path-3-inside-1_2_52" fill="white">
<path d="M25.1012 9.87355C18.6937 3.67938 8.08955 8.17188 8.08539 16.9102C8.08539 18.6569 8.54289 20.3602 9.41455 21.8644L8.00122 26.9994L13.2804 25.6227C19.8679 29.181 27.9979 24.456 28.0012 16.9152C28.0012 14.2685 26.9679 11.7777 25.0887 9.90605L25.1012 9.87355ZM26.3362 16.8877C26.3312 23.2485 19.3487 27.2211 13.8262 23.9744L13.5262 23.796L10.4012 24.6085L11.2387 21.571L11.0396 21.2585C7.60289 15.7877 11.5512 8.63772 18.0612 8.63772C20.2729 8.63772 22.3487 9.50022 23.9121 11.0627C25.4746 12.6119 26.3362 14.6877 26.3362 16.8877Z"/>
</mask>
<path d="M25.1012 9.87355L45.0124 17.5322L50.0824 4.35109L39.9287 -5.46457L25.1012 9.87355ZM8.08539 16.9102L-13.2479 16.9V16.9102H8.08539ZM9.41455 21.8644L29.983 27.5256L32.3559 18.9045L27.8725 11.1679L9.41455 21.8644ZM8.00122 26.9994L-12.5673 21.3382L-22.3736 56.9671L13.3844 47.6424L8.00122 26.9994ZM13.2804 25.6227L23.4193 6.85269L16.0271 2.85968L7.89724 4.97973L13.2804 25.6227ZM28.0012 16.9152L49.3346 16.9246V16.9152H28.0012ZM25.0887 9.90605L5.1775 2.24743L0.189361 15.2158L10.034 25.0211L25.0887 9.90605ZM26.3362 16.8877L47.6695 16.9045L47.6696 16.8961V16.8877H26.3362ZM13.8262 23.9744L2.92522 42.3123L2.96975 42.3388L3.0144 42.365L13.8262 23.9744ZM13.5262 23.796L24.4272 5.45813L16.7744 0.908909L8.15803 3.14917L13.5262 23.796ZM10.4012 24.6085L-10.1647 18.9381L-19.984 54.5513L15.7694 45.2554L10.4012 24.6085ZM11.2387 21.571L31.8046 27.2415L34.3249 18.101L29.2289 10.1053L11.2387 21.571ZM11.0396 21.2585L-7.02521 32.6065L-6.98812 32.6655L-6.95065 32.7243L11.0396 21.2585ZM23.9121 11.0627L8.83113 26.1517L8.86145 26.182L8.89189 26.2122L23.9121 11.0627ZM39.9287 -5.46457C20.2724 -24.4664 -13.2346 -11.065 -13.2479 16.9L29.4187 16.9204C29.4137 27.4088 17.115 31.8251 10.2738 25.2117L39.9287 -5.46457ZM-13.2479 16.9102C-13.2479 22.4011 -11.8047 27.796 -9.04344 32.5608L27.8725 11.1679C28.8905 12.9245 29.4187 14.9127 29.4187 16.9102H-13.2479ZM-11.1539 16.2032L-12.5673 21.3382L28.5697 32.6606L29.983 27.5256L-11.1539 16.2032ZM13.3844 47.6424L18.6635 46.2657L7.89724 4.97973L2.61808 6.3564L13.3844 47.6424ZM3.14149 44.3927C23.6396 55.4651 49.3239 40.9553 49.3346 16.9246L6.66789 16.9058C6.67184 7.95681 16.0962 2.89703 23.4193 6.85269L3.14149 44.3927ZM49.3346 16.9152C49.3346 8.59672 46.0425 0.666477 40.1435 -5.20903L10.034 25.0211C7.89325 22.889 6.66789 19.9404 6.66789 16.9152H49.3346ZM44.9999 17.5647L45.0124 17.5322L5.19 2.21493L5.1775 2.24743L44.9999 17.5647ZM5.00289 16.8709C5.011 6.55918 16.1034 0.566242 24.638 5.58374L3.0144 42.365C22.594 53.8759 47.6514 39.9379 47.6695 16.9045L5.00289 16.8709ZM24.7272 5.63646L24.4272 5.45813L2.62522 42.134L2.92522 42.3123L24.7272 5.63646ZM8.15803 3.14917L5.03303 3.96167L15.7694 45.2554L18.8944 44.4429L8.15803 3.14917ZM30.9671 30.279L31.8046 27.2415L-9.3272 15.9006L-10.1647 18.9381L30.9671 30.279ZM29.2289 10.1053L29.0298 9.79279L-6.95065 32.7243L-6.75148 33.0368L29.2289 10.1053ZM29.1043 9.91063C34.6426 18.7271 28.2345 29.9711 18.0612 29.9711V-12.6956C-5.13201 -12.6956 -19.4369 12.8484 -7.02521 32.6065L29.1043 9.91063ZM18.0612 29.9711C14.599 29.9711 11.2556 28.5748 8.83113 26.1517L38.993 -4.02625C33.4419 -9.57439 25.9468 -12.6956 18.0612 -12.6956V29.9711ZM8.89189 26.2122C6.39833 23.7399 5.00289 20.3552 5.00289 16.8877H47.6696C47.6696 9.02019 44.5508 1.48388 38.9322 -4.08673L8.89189 26.2122Z" fill="#F2C94C" mask="url(#path-3-inside-1_2_52)"/>
</svg>
