<svg width="41" height="43" viewBox="0 0 41 43" fill="none" xmlns="http://www.w3.org/2000/svg">
<path d="M39.5938 23.6923H30.33V19.3288C30.33 19.1772 30.2075 19.0542 30.0559 19.0534L29.1247 19.0492C28.9727 19.0485 28.8487 19.1713 28.848 19.3233C28.8473 19.4753 28.9701 19.5993 29.1221 19.6L29.7792 19.6029V23.6912H28.0172V15.0783C30.2433 16.3798 32.9517 16.4284 35.1811 15.3156C35.3127 15.2499 35.361 15.0852 35.2905 14.956L35.2782 14.9336C35.2099 14.8082 35.0551 14.7632 34.9273 14.8267C32.1274 16.2204 28.5847 15.6054 26.4516 13.0446C22.6686 8.50266 26.0258 1.76367 31.8136 1.76367C34.2682 1.76367 36.5331 3.04663 37.7857 5.12895C37.8595 5.2514 38.0145 5.29675 38.1397 5.22754L38.1621 5.21523C38.2908 5.14418 38.3383 4.97987 38.2629 4.85392C36.912 2.60123 34.4654 1.21289 31.8136 1.21289C28.3909 1.21289 25.4983 3.49973 24.6004 6.61385H3.79793C3.64591 6.61385 3.52254 6.73723 3.52254 6.88924V36.9678L2.17881 39.4782C2.02882 39.7746 1.97704 40.0907 2.00256 40.3562C1.79914 40.0483 1.68164 39.68 1.68164 39.2858V16.5092H2.60126C2.75328 16.5092 2.87665 16.3858 2.87665 16.2338C2.87665 16.0818 2.75328 15.9584 2.60126 15.9584H1.40625C1.25423 15.9584 1.13086 16.0818 1.13086 16.2338V39.2856C1.13086 40.7314 2.34533 41.7871 3.58312 41.7871H27.7512C29.37 41.7871 30.8472 40.9057 31.6061 39.4867L39.8366 24.0977C39.9347 23.9139 39.801 23.6923 39.5938 23.6923ZM4.07332 7.16463H24.4612C23.8662 10.0739 25.068 13.0345 27.4667 14.7296V23.6917H10.7881C10.6864 23.6917 10.5931 23.7477 10.5452 23.8373L10.545 23.8375L4.07332 35.938V7.16463ZM31.1205 39.2269C30.4576 40.4663 29.1665 41.2363 27.7512 41.2363H3.65179C3.65123 41.2363 3.65068 41.2361 3.64995 41.2361C3.23007 41.2361 2.93742 41.0757 2.74465 40.8097C2.7441 40.8089 2.74355 40.808 2.743 40.8073C2.51204 40.4865 2.48541 40.0745 2.66827 39.7329C3.88293 37.4616 9.54533 26.8749 10.9528 24.2431H39.134L31.1205 39.2269Z" fill="#FFDD00" stroke="#FFDD00" stroke-width="1.5"/>
<path d="M33.7401 38.1001L33.4771 38.584L33.961 38.847L34.224 38.3631L33.7401 38.1001Z" fill="#FFDD00"/>
<path d="M34.2661 37.1289L34.0029 37.6128L34.4868 37.876L34.75 37.3921L34.2661 37.1289Z" fill="#FFDD00"/>
<path d="M33.2142 39.0683L32.9512 39.5522L33.4351 39.8153L33.6981 39.3314L33.2142 39.0683Z" fill="#FFDD00"/>
<path d="M34.7928 36.1645L34.5298 36.6484L35.0137 36.9115L35.2768 36.4276L34.7928 36.1645Z" fill="#FFDD00"/>
<path d="M36.371 33.2607L36.1079 33.7446L36.5918 34.0077L36.8549 33.5238L36.371 33.2607Z" fill="#FFDD00"/>
<path d="M35.3187 35.1967L35.0557 35.6807L35.5396 35.9437L35.8026 35.4598L35.3187 35.1967Z" fill="#FFDD00"/>
<path d="M36.8965 32.2901L36.6333 32.7739L37.1172 33.0371L37.3803 32.5532L36.8965 32.2901Z" fill="#FFDD00"/>
<path d="M35.8451 34.229L35.582 34.7129L36.066 34.9759L36.329 34.492L35.8451 34.229Z" fill="#FFDD00"/>
<path d="M20.319 11.0889H10.9355C10.7835 11.0889 10.6602 11.2122 10.6602 11.3643C10.6602 11.5163 10.7835 11.6396 10.9355 11.6396H20.319C20.471 11.6396 20.5944 11.5163 20.5944 11.3643C20.5944 11.2122 20.471 11.0889 20.319 11.0889Z" fill="white"/>
<path d="M20.319 11.0889H10.9355C10.7835 11.0889 10.6602 11.2122 10.6602 11.3643C10.6602 11.5163 10.7835 11.6396 10.9355 11.6396H20.319C20.471 11.6396 20.5944 11.5163 20.5944 11.3643C20.5944 11.2122 20.471 11.0889 20.319 11.0889Z" fill="#FFDD00"/>
<path d="M22.7633 14.1025H8.49072C8.33871 14.1025 8.21533 14.2259 8.21533 14.3779C8.21533 14.5299 8.33871 14.6533 8.49072 14.6533H22.7633C22.9153 14.6533 23.0387 14.5299 23.0387 14.3779C23.0387 14.2259 22.9153 14.1025 22.7633 14.1025Z" fill="white"/>
<path d="M22.7633 14.1025H8.49072C8.33871 14.1025 8.21533 14.2259 8.21533 14.3779C8.21533 14.5299 8.33871 14.6533 8.49072 14.6533H22.7633C22.9153 14.6533 23.0387 14.5299 23.0387 14.3779C23.0387 14.2259 22.9153 14.1025 22.7633 14.1025Z" fill="#FFDD00"/>
<path d="M22.7633 17.1157H8.49072C8.33871 17.1157 8.21533 17.2391 8.21533 17.3911C8.21533 17.5431 8.33871 17.6665 8.49072 17.6665H22.7633C22.9153 17.6665 23.0387 17.5431 23.0387 17.3911C23.0387 17.2389 22.9153 17.1157 22.7633 17.1157Z" fill="white"/>
<path d="M22.7633 17.1157H8.49072C8.33871 17.1157 8.21533 17.2391 8.21533 17.3911C8.21533 17.5431 8.33871 17.6665 8.49072 17.6665H22.7633C22.9153 17.6665 23.0387 17.5431 23.0387 17.3911C23.0387 17.2389 22.9153 17.1157 22.7633 17.1157Z" fill="#FFDD00"/>
<path d="M22.7633 20.1294H8.49072C8.33871 20.1294 8.21533 20.2528 8.21533 20.4048C8.21533 20.5568 8.33871 20.6802 8.49072 20.6802H22.7633C22.9153 20.6802 23.0387 20.5568 23.0387 20.4048C23.0387 20.2526 22.9153 20.1294 22.7633 20.1294Z" fill="white"/>
<path d="M22.7633 20.1294H8.49072C8.33871 20.1294 8.21533 20.2528 8.21533 20.4048C8.21533 20.5568 8.33871 20.6802 8.49072 20.6802H22.7633C22.9153 20.6802 23.0387 20.5568 23.0387 20.4048C23.0387 20.2526 22.9153 20.1294 22.7633 20.1294Z" fill="#FFDD00"/>
<path d="M5.24951 4.70361H4.69873V5.25439H5.24951V4.70361Z" fill="#FFDD00"/>
<path d="M4.14763 5.25436V4.70357C3.75346 4.70357 3.68277 4.701 3.57812 4.70816L3.61594 5.25766C3.6936 5.25234 4.06373 5.25436 4.14763 5.25436Z" fill="#FFDD00"/>
<path d="M2.28711 7.97559H1.73633V8.52637H2.28711V7.97559Z" fill="#FFDD00"/>
<path d="M3.16765 5.36183L2.95835 4.85254C2.76044 4.93369 2.57813 5.04605 2.41602 5.18613L2.77623 5.60288C2.89336 5.50154 3.025 5.42039 3.16765 5.36183Z" fill="#FFDD00"/>
<path d="M2.28711 6.87402H1.73633V7.4248H2.28711V6.87402Z" fill="#FFDD00"/>
<path d="M2.28711 9.07715H1.73633V9.62793H2.28711V9.07715Z" fill="#FFDD00"/>
<path d="M2.48167 5.95515L2.00763 5.6748C1.89821 5.86005 1.82055 6.06035 1.77686 6.2702L2.31625 6.38219C2.34747 6.23164 2.40328 6.08789 2.48167 5.95515Z" fill="#FFDD00"/>
<path d="M36.3324 5.57743L36.3532 5.56311C36.4775 5.47682 36.5024 5.30443 36.4103 5.18436C35.3205 3.76426 33.6224 2.92432 31.8135 2.92432C28.6263 2.92432 26.0332 5.49702 26.0332 8.65923C26.0332 13.1586 31.0203 15.8598 34.8068 13.5649L36.3324 5.57743ZM36.3324 5.57743C36.2153 5.65858 36.0578 5.62939 35.9711 5.51648L36.3324 5.57743ZM34.5478 13.1372L34.5476 13.1373L34.5478 13.1372Z" fill="#FFDD00"/>
<path d="M36.3324 5.57743L36.3532 5.56311C36.4775 5.47682 36.5024 5.30443 36.4103 5.18436C35.3205 3.76426 33.6224 2.92432 31.8135 2.92432C28.6263 2.92432 26.0332 5.49702 26.0332 8.65923C26.0332 13.1586 31.0203 15.8598 34.8068 13.5649L36.3324 5.57743ZM36.3324 5.57743C36.2153 5.65858 36.0578 5.62939 35.9711 5.51648L36.3324 5.57743ZM34.5478 13.1372L34.5476 13.1373L34.5478 13.1372Z" stroke="white"/>
<path d="M36.3324 5.57743L36.3532 5.56311C36.4775 5.47682 36.5024 5.30443 36.4103 5.18436C35.3205 3.76426 33.6224 2.92432 31.8135 2.92432C28.6263 2.92432 26.0332 5.49702 26.0332 8.65923C26.0332 13.1586 31.0203 15.8598 34.8068 13.5649L36.3324 5.57743ZM36.3324 5.57743C36.2153 5.65858 36.0578 5.62939 35.9711 5.51648L36.3324 5.57743ZM34.5478 13.1372L34.5476 13.1373L34.5478 13.1372Z" stroke="#FFDD00"/>
<path d="M30.1932 10.6345L30.1933 10.6344L30.1932 10.6345ZM29.8772 10.3154L29.877 10.3155L29.8772 10.3154Z" fill="#FFDD00"/>
<path d="M30.1932 10.6345L30.1933 10.6344L30.1932 10.6345ZM29.8772 10.3154L29.877 10.3155L29.8772 10.3154Z" stroke="white"/>
<path d="M30.1932 10.6345L30.1933 10.6344L30.1932 10.6345ZM29.8772 10.3154L29.877 10.3155L29.8772 10.3154Z" stroke="#FFDD00"/>
<path d="M35.1562 6.38525V12.1674C35.1562 12.1888 35.1588 12.2101 35.1638 12.2311L36.0544 15.9745C36.084 16.0986 36.1948 16.1862 36.3223 16.1862H38.1498C38.2774 16.1862 38.3881 16.0986 38.4176 15.9745L39.3082 12.2311C39.3132 12.2101 39.3158 12.1888 39.3158 12.1674V6.38525C39.3158 6.23305 39.1926 6.10986 39.0404 6.10986H35.4316C35.2794 6.10986 35.1562 6.23305 35.1562 6.38525ZM35.707 6.66064H38.765V12.135L37.9322 15.6354H36.5398L35.707 12.135V6.66064Z" fill="white"/>
<path d="M35.1562 6.38525V12.1674C35.1562 12.1888 35.1588 12.2101 35.1638 12.2311L36.0544 15.9745C36.084 16.0986 36.1948 16.1862 36.3223 16.1862H38.1498C38.2774 16.1862 38.3881 16.0986 38.4176 15.9745L39.3082 12.2311C39.3132 12.2101 39.3158 12.1888 39.3158 12.1674V6.38525C39.3158 6.23305 39.1926 6.10986 39.0404 6.10986H35.4316C35.2794 6.10986 35.1562 6.23305 35.1562 6.38525ZM35.707 6.66064H38.765V12.135L37.9322 15.6354H36.5398L35.707 12.135V6.66064Z" fill="#FFDD00"/>
<path d="M35.8774 17.1665C35.7252 17.1665 35.6021 17.2897 35.6021 17.4419V20.2814C35.6021 20.4336 35.7252 20.5567 35.8774 20.5567H38.7397C38.8919 20.5567 39.0151 20.4336 39.0151 20.2814V17.4419C39.0151 17.2897 38.8919 17.1665 38.7397 17.1665H35.8774ZM38.4645 20.006H36.153V17.7173H38.4645V20.006Z" fill="white"/>
<path d="M35.8774 17.1665C35.7252 17.1665 35.6021 17.2897 35.6021 17.4419V20.2814C35.6021 20.4336 35.7252 20.5567 35.8774 20.5567H38.7397C38.8919 20.5567 39.0151 20.4336 39.0151 20.2814V17.4419C39.0151 17.2897 38.8919 17.1665 38.7397 17.1665H35.8774ZM38.4645 20.006H36.153V17.7173H38.4645V20.006Z" fill="#FFDD00"/>
</svg>
